<svg xmlns="http://www.w3.org/2000/svg" width="189" height="292" viewBox="0 0 189 292">
    <g fill="none" fill-rule="evenodd">
        <path fill="#0D0D0D" d="M30 133L159 133 159 174 30 174z"/>
        <path fill="#F1D0A5" d="M35.333 59.21v69.153c0 32.661 25.972 59.733 58.441 59.976 32.728.244 59.334-26.369 59.334-59.232V59.21H35.333z"/>
        <path fill="#F1B986" d="M140.153 59.21v69.896c0 30.512-22.936 55.631-52.41 58.876 2.128.234 4.288.359 6.477.359 32.523 0 58.888-26.52 58.888-59.234V59.21h-12.955z"/>
        <path fill="#1E1E1E" d="M94.47.569c66.882 0 89.259 55.68 89.259 97.143 0 37.317-22.377 88.851-22.377 88.851 0-6.543-5.273-11.847-11.778-11.847l2.382-59.1c.708-17.569-8.314-34.088-23.435-42.91l-10.665-6.222c-14.617-8.528-32.655-8.528-47.272 0L59.92 72.706c-15.121 8.822-24.143 25.341-23.435 42.91l2.382 59.1c-6.505 0-11.778 5.304-11.778 11.847 0 6.543-22.377-51.534-22.377-88.851C4.712 56.248 27.089.569 93.97.569h.499z"/>
        <path fill="#0D0D0D" d="M183.729 97.712c0-24.723-7.96-54.499-28.562-74.513 10.28 17.219 16.195 37.374 16.195 58.922 0 24.53-7.665 47.258-20.712 65.9l-1.076 26.696c6.505 0 11.778 5.304 11.778 11.847 0-.001 22.377-51.535 22.377-88.852z"/>
        <path fill="#BF3C3B" d="M188.44 286.136V261.47c0-21.744-14.712-40.698-35.684-45.972l-34.981-8.796h-47.11l-34.98 8.796C14.712 220.773 0 239.727 0 261.471v24.665c0 3.238 2.61 5.863 5.83 5.863h176.78c3.22 0 5.83-2.625 5.83-5.863"/>
        <path fill="#9E2B2B" d="M158.782 217.46c7.519 8.464 11.992 19.592 11.992 31.572V292h11.837c3.22 0 5.83-2.625 5.83-5.863V261.47c-.001-19.594-11.95-36.918-29.659-44.012"/>
        <path fill="#8FCBD9" d="M153.108 292H35.333c-9.756 0-17.666-7.956-17.666-17.771v-4.739c0-3.27 2.636-5.923 5.889-5.923h141.329c3.252 0 5.889 2.652 5.889 5.923v4.739c0 9.815-7.91 17.77-17.666 17.77"/>
        <path fill="#61A9B5" d="M164.885 263.567h-14.133c3.252 0 5.889 2.652 5.889 5.924v4.739c0 9.814-7.91 17.77-17.667 17.77h14.134c9.756 0 17.666-7.956 17.666-17.77v-4.739c0-3.272-2.636-5.924-5.889-5.924"/>
        <path fill="#8FCBD9" d="M161.352 263.567H27.09v-77.004c0-6.543 5.273-11.847 11.778-11.847h110.708c6.504 0 11.777 5.304 11.777 11.847v77.004z"/>
        <path fill="#61A9B5" d="M151.34 174.864v72.71c0 3.271-2.635 5.924-5.888 5.924H27.089v10.07h134.263v-77.005c0-5.937-4.347-10.84-10.011-11.7z"/>
        <path fill="#F4FBFF" d="M94.22 206.702c7.155 0 12.955 5.835 12.955 13.032s-5.8 13.031-12.955 13.031c-7.154 0-12.955-5.834-12.955-13.031 0-7.197 5.8-13.032 12.955-13.032"/>
        <path fill="#1E1E1E" d="M67.66 128.08c0 2.377-1.916 4.304-4.28 4.304-2.363 0-4.279-1.927-4.279-4.304 0-2.378 1.916-4.305 4.28-4.305 2.363 0 4.279 1.927 4.279 4.305M128.984 128.08c0 2.377-1.916 4.304-4.28 4.304-2.363 0-4.279-1.927-4.279-4.304 0-2.378 1.916-4.305 4.28-4.305 2.363 0 4.279 1.927 4.279 4.305"/>
        <path fill="#F1B986" d="M90.825 148.94h9.054s-4.527-11.953-9.054 0"/>
    </g>
</svg>
